<mxfile host="app.diagrams.net" agent="Mozilla/5.0 (Windows NT 10.0; Win64; x64) AppleWebKit/537.36 (KHTML, like Gecko) Chrome/130.0.0.0 Safari/537.36" version="24.8.3">
  <diagram name="第 1 页" id="Jaq1JRCkrECC7zMK7oo5">
    <mxGraphModel dx="1741" dy="456" grid="1" gridSize="10" guides="1" tooltips="1" connect="1" arrows="1" fold="1" page="1" pageScale="1" pageWidth="827" pageHeight="1169" background="none" math="0" shadow="0">
      <root>
        <mxCell id="0" />
        <mxCell id="1" parent="0" />
        <mxCell id="ckDsBdBry1wg4cDhe6d8-78" value="" style="endArrow=classic;html=1;rounded=0;endSize=2;entryX=0;entryY=0.25;entryDx=0;entryDy=0;exitX=1.006;exitY=0.635;exitDx=0;exitDy=0;exitPerimeter=0;" edge="1" parent="1" source="ckDsBdBry1wg4cDhe6d8-23" target="ckDsBdBry1wg4cDhe6d8-30">
          <mxGeometry width="50" height="50" relative="1" as="geometry">
            <mxPoint x="-290" y="1568" as="sourcePoint" />
            <mxPoint x="30" y="1570" as="targetPoint" />
          </mxGeometry>
        </mxCell>
        <mxCell id="ckDsBdBry1wg4cDhe6d8-80" value="" style="endArrow=classic;html=1;rounded=0;endSize=2;entryX=0;entryY=0.25;entryDx=0;entryDy=0;exitX=1.004;exitY=0.847;exitDx=0;exitDy=0;exitPerimeter=0;" edge="1" parent="1" source="ckDsBdBry1wg4cDhe6d8-23" target="ckDsBdBry1wg4cDhe6d8-43">
          <mxGeometry width="50" height="50" relative="1" as="geometry">
            <mxPoint x="-290" y="1625" as="sourcePoint" />
            <mxPoint x="52.2" y="1634.86" as="targetPoint" />
          </mxGeometry>
        </mxCell>
        <mxCell id="ckDsBdBry1wg4cDhe6d8-77" value="" style="endArrow=classic;html=1;rounded=0;exitX=1;exitY=0.75;exitDx=0;exitDy=0;curved=0;strokeColor=default;strokeWidth=1;jumpStyle=none;endSize=2;entryX=0;entryY=0.75;entryDx=0;entryDy=0;" edge="1" parent="1" source="ckDsBdBry1wg4cDhe6d8-29" target="ckDsBdBry1wg4cDhe6d8-40">
          <mxGeometry width="50" height="50" relative="1" as="geometry">
            <mxPoint x="-134.62" y="1532.43" as="sourcePoint" />
            <mxPoint x="-25.62" y="1530" as="targetPoint" />
          </mxGeometry>
        </mxCell>
        <mxCell id="ckDsBdBry1wg4cDhe6d8-76" value="" style="endArrow=classic;html=1;rounded=0;endSize=2;entryX=0;entryY=0.25;entryDx=0;entryDy=0;exitX=0.999;exitY=0.418;exitDx=0;exitDy=0;exitPerimeter=0;" edge="1" parent="1" source="ckDsBdBry1wg4cDhe6d8-23" target="ckDsBdBry1wg4cDhe6d8-40">
          <mxGeometry width="50" height="50" relative="1" as="geometry">
            <mxPoint x="-290" y="1511" as="sourcePoint" />
            <mxPoint x="30" y="1510" as="targetPoint" />
          </mxGeometry>
        </mxCell>
        <mxCell id="ckDsBdBry1wg4cDhe6d8-48" value="" style="endArrow=classic;html=1;rounded=0;exitX=1;exitY=0.25;exitDx=0;exitDy=0;entryX=0;entryY=0.25;entryDx=0;entryDy=0;endSize=2;" edge="1" parent="1" target="ckDsBdBry1wg4cDhe6d8-39">
          <mxGeometry width="50" height="50" relative="1" as="geometry">
            <mxPoint x="-359.80999999999983" y="1454" as="sourcePoint" />
            <mxPoint x="-15.609756097560979" y="1454" as="targetPoint" />
          </mxGeometry>
        </mxCell>
        <mxCell id="ckDsBdBry1wg4cDhe6d8-1" value="" style="shape=cube;whiteSpace=wrap;html=1;boundedLbl=1;backgroundOutline=1;darkOpacity=0.05;darkOpacity2=0.1;size=29;rotation=90;" vertex="1" parent="1">
          <mxGeometry x="244" y="974" width="157.5" height="39.5" as="geometry" />
        </mxCell>
        <mxCell id="ckDsBdBry1wg4cDhe6d8-2" value="" style="shape=cube;whiteSpace=wrap;html=1;boundedLbl=1;backgroundOutline=1;darkOpacity=0.05;darkOpacity2=0.1;size=29;rotation=90;" vertex="1" parent="1">
          <mxGeometry x="281.25" y="974.25" width="120.5" height="39.5" as="geometry" />
        </mxCell>
        <mxCell id="ckDsBdBry1wg4cDhe6d8-3" value="" style="shape=cube;whiteSpace=wrap;html=1;boundedLbl=1;backgroundOutline=1;darkOpacity=0.05;darkOpacity2=0.1;size=29;rotation=90;" vertex="1" parent="1">
          <mxGeometry x="314" y="970" width="92" height="39.5" as="geometry" />
        </mxCell>
        <mxCell id="ckDsBdBry1wg4cDhe6d8-4" value="" style="shape=cube;whiteSpace=wrap;html=1;boundedLbl=1;backgroundOutline=1;darkOpacity=0.05;darkOpacity2=0.1;size=29;rotation=90;" vertex="1" parent="1">
          <mxGeometry x="341.5" y="966" width="68.5" height="39.5" as="geometry" />
        </mxCell>
        <mxCell id="ckDsBdBry1wg4cDhe6d8-5" value="" style="shape=cube;whiteSpace=wrap;html=1;boundedLbl=1;backgroundOutline=1;darkOpacity=0.05;darkOpacity2=0.1;size=29;rotation=90;" vertex="1" parent="1">
          <mxGeometry x="369" y="962" width="45" height="39.5" as="geometry" />
        </mxCell>
        <mxCell id="ckDsBdBry1wg4cDhe6d8-6" value="" style="shape=cube;whiteSpace=wrap;html=1;boundedLbl=1;backgroundOutline=1;darkOpacity=0.05;darkOpacity2=0.1;size=29;rotation=90;" vertex="1" parent="1">
          <mxGeometry x="436" y="962" width="45" height="39.5" as="geometry" />
        </mxCell>
        <mxCell id="ckDsBdBry1wg4cDhe6d8-7" value="" style="shape=cube;whiteSpace=wrap;html=1;boundedLbl=1;backgroundOutline=1;darkOpacity=0.05;darkOpacity2=0.1;size=29;rotation=90;" vertex="1" parent="1">
          <mxGeometry x="435" y="968" width="68.5" height="39.5" as="geometry" />
        </mxCell>
        <mxCell id="ckDsBdBry1wg4cDhe6d8-8" value="" style="shape=cube;whiteSpace=wrap;html=1;boundedLbl=1;backgroundOutline=1;darkOpacity=0.05;darkOpacity2=0.1;size=29;rotation=90;" vertex="1" parent="1">
          <mxGeometry x="446.5" y="967" width="68.5" height="37.5" as="geometry" />
        </mxCell>
        <mxCell id="ckDsBdBry1wg4cDhe6d8-9" value="" style="shape=cube;whiteSpace=wrap;html=1;boundedLbl=1;backgroundOutline=1;darkOpacity=0.05;darkOpacity2=0.1;size=29;rotation=90;" vertex="1" parent="1">
          <mxGeometry x="433.75" y="974.55" width="92" height="39.5" as="geometry" />
        </mxCell>
        <mxCell id="ckDsBdBry1wg4cDhe6d8-10" value="" style="endArrow=classic;html=1;rounded=0;" edge="1" parent="1">
          <mxGeometry width="50" height="50" relative="1" as="geometry">
            <mxPoint x="398" y="991.5799999999999" as="sourcePoint" />
            <mxPoint x="434" y="991.5799999999999" as="targetPoint" />
          </mxGeometry>
        </mxCell>
        <mxCell id="ckDsBdBry1wg4cDhe6d8-11" value="" style="endArrow=classic;html=1;rounded=0;" edge="1" parent="1">
          <mxGeometry width="50" height="50" relative="1" as="geometry">
            <mxPoint x="503.5" y="990.5799999999999" as="sourcePoint" />
            <mxPoint x="539.5" y="990.5799999999999" as="targetPoint" />
          </mxGeometry>
        </mxCell>
        <mxCell id="ckDsBdBry1wg4cDhe6d8-12" value="" style="shape=parallelogram;perimeter=parallelogramPerimeter;whiteSpace=wrap;html=1;fixedSize=1;rotation=90;flipH=1;size=4.250000000000227;opacity=80;" vertex="1" parent="1">
          <mxGeometry x="540.75" y="987.1400000000001" width="21.5" height="12.32" as="geometry" />
        </mxCell>
        <mxCell id="ckDsBdBry1wg4cDhe6d8-13" value="" style="shape=parallelogram;perimeter=parallelogramPerimeter;whiteSpace=wrap;html=1;fixedSize=1;rotation=90;flipH=1;size=5.316666666666379;textOpacity=10;opacity=70;" vertex="1" parent="1">
          <mxGeometry x="539.5" y="983.5899999999999" width="44" height="16.12" as="geometry" />
        </mxCell>
        <mxCell id="ckDsBdBry1wg4cDhe6d8-14" value="" style="shape=parallelogram;perimeter=parallelogramPerimeter;whiteSpace=wrap;html=1;fixedSize=1;rotation=90;flipH=1;size=9.624999999999773;textOpacity=0;opacity=80;" vertex="1" parent="1">
          <mxGeometry x="540.75" y="975.75" width="72.75" height="28.75" as="geometry" />
        </mxCell>
        <mxCell id="ckDsBdBry1wg4cDhe6d8-15" value="" style="whiteSpace=wrap;html=1;aspect=fixed;" vertex="1" parent="1">
          <mxGeometry x="-372" y="1288" width="80" height="80" as="geometry" />
        </mxCell>
        <mxCell id="ckDsBdBry1wg4cDhe6d8-16" value="" style="whiteSpace=wrap;html=1;aspect=fixed;" vertex="1" parent="1">
          <mxGeometry x="-214.62" y="1288" width="80" height="80" as="geometry" />
        </mxCell>
        <mxCell id="ckDsBdBry1wg4cDhe6d8-105" style="edgeStyle=orthogonalEdgeStyle;curved=1;rounded=0;orthogonalLoop=1;jettySize=auto;html=1;exitX=1;exitY=0.5;exitDx=0;exitDy=0;entryX=0;entryY=0.5;entryDx=0;entryDy=0;endArrow=none;endFill=0;" edge="1" parent="1" source="ckDsBdBry1wg4cDhe6d8-39" target="ckDsBdBry1wg4cDhe6d8-85">
          <mxGeometry relative="1" as="geometry" />
        </mxCell>
        <mxCell id="ckDsBdBry1wg4cDhe6d8-108" style="edgeStyle=orthogonalEdgeStyle;curved=1;rounded=0;orthogonalLoop=1;jettySize=auto;html=1;exitX=1;exitY=0.75;exitDx=0;exitDy=0;endArrow=none;endFill=0;entryX=0.5;entryY=1;entryDx=0;entryDy=0;" edge="1" parent="1" source="ckDsBdBry1wg4cDhe6d8-39" target="ckDsBdBry1wg4cDhe6d8-83">
          <mxGeometry relative="1" as="geometry">
            <mxPoint x="10" y="1480" as="targetPoint" />
          </mxGeometry>
        </mxCell>
        <mxCell id="ckDsBdBry1wg4cDhe6d8-39" value="" style="rounded=0;whiteSpace=wrap;html=1;" vertex="1" parent="1">
          <mxGeometry x="-59.999756097560976" y="1444" width="55.609756097560975" height="40" as="geometry" />
        </mxCell>
        <mxCell id="ckDsBdBry1wg4cDhe6d8-40" value="" style="rounded=0;whiteSpace=wrap;html=1;" vertex="1" parent="1">
          <mxGeometry x="-59.999756097560976" y="1501" width="55.609756097560975" height="40" as="geometry" />
        </mxCell>
        <mxCell id="ckDsBdBry1wg4cDhe6d8-26" value="" style="rounded=0;whiteSpace=wrap;html=1;" vertex="1" parent="1">
          <mxGeometry x="-214.62" y="1400" width="80" height="265" as="geometry" />
        </mxCell>
        <mxCell id="ckDsBdBry1wg4cDhe6d8-27" value="" style="rounded=0;whiteSpace=wrap;html=1;" vertex="1" parent="1">
          <mxGeometry x="-202.42975609756098" y="1411" width="55.609756097560975" height="16" as="geometry" />
        </mxCell>
        <mxCell id="ckDsBdBry1wg4cDhe6d8-28" value="" style="rounded=0;whiteSpace=wrap;html=1;" vertex="1" parent="1">
          <mxGeometry x="-202.42975609756098" y="1444" width="55.609756097560975" height="40" as="geometry" />
        </mxCell>
        <mxCell id="ckDsBdBry1wg4cDhe6d8-29" value="" style="rounded=0;whiteSpace=wrap;html=1;" vertex="1" parent="1">
          <mxGeometry x="-202.42975609756098" y="1501" width="55.609756097560975" height="40" as="geometry" />
        </mxCell>
        <mxCell id="ckDsBdBry1wg4cDhe6d8-30" value="" style="rounded=0;whiteSpace=wrap;html=1;" vertex="1" parent="1">
          <mxGeometry x="-59.999756097560976" y="1558" width="55.609756097560975" height="40" as="geometry" />
        </mxCell>
        <mxCell id="ckDsBdBry1wg4cDhe6d8-31" value="" style="rounded=0;whiteSpace=wrap;html=1;" vertex="1" parent="1">
          <mxGeometry x="-202.42" y="1615" width="55.609756097560975" height="40" as="geometry" />
        </mxCell>
        <mxCell id="ckDsBdBry1wg4cDhe6d8-42" value="" style="rounded=0;whiteSpace=wrap;html=1;" vertex="1" parent="1">
          <mxGeometry x="-202.42975609756098" y="1558" width="55.609756097560975" height="40" as="geometry" />
        </mxCell>
        <mxCell id="ckDsBdBry1wg4cDhe6d8-23" value="" style="rounded=0;whiteSpace=wrap;html=1;" vertex="1" parent="1">
          <mxGeometry x="-372" y="1400" width="80" height="265" as="geometry" />
        </mxCell>
        <mxCell id="ckDsBdBry1wg4cDhe6d8-17" value="" style="rounded=0;whiteSpace=wrap;html=1;" vertex="1" parent="1">
          <mxGeometry x="-359.809756097561" y="1411" width="55.609756097560975" height="16" as="geometry" />
        </mxCell>
        <mxCell id="ckDsBdBry1wg4cDhe6d8-18" value="" style="rounded=0;whiteSpace=wrap;html=1;strokeColor=default;align=center;verticalAlign=middle;fontFamily=Helvetica;fontSize=12;fontColor=default;fillColor=default;" vertex="1" parent="1">
          <mxGeometry x="-359.809756097561" y="1444" width="55.609756097560975" height="32" as="geometry" />
        </mxCell>
        <mxCell id="ckDsBdBry1wg4cDhe6d8-19" value="" style="rounded=0;whiteSpace=wrap;html=1;" vertex="1" parent="1">
          <mxGeometry x="-359.809756097561" y="1501" width="55.609756097560975" height="32" as="geometry" />
        </mxCell>
        <mxCell id="ckDsBdBry1wg4cDhe6d8-20" value="" style="rounded=0;whiteSpace=wrap;html=1;" vertex="1" parent="1">
          <mxGeometry x="-359.809756097561" y="1558" width="55.609756097560975" height="40" as="geometry" />
        </mxCell>
        <mxCell id="ckDsBdBry1wg4cDhe6d8-21" value="" style="rounded=0;whiteSpace=wrap;html=1;" vertex="1" parent="1">
          <mxGeometry x="-359.8" y="1615" width="55.609756097560975" height="40" as="geometry" />
        </mxCell>
        <mxCell id="ckDsBdBry1wg4cDhe6d8-43" value="" style="rounded=0;whiteSpace=wrap;html=1;" vertex="1" parent="1">
          <mxGeometry x="-59.99999999999997" y="1615" width="55.609756097560975" height="40" as="geometry" />
        </mxCell>
        <mxCell id="ckDsBdBry1wg4cDhe6d8-49" value="" style="endArrow=classic;html=1;rounded=0;entryX=0;entryY=0.75;entryDx=0;entryDy=0;exitX=1.005;exitY=0.28;exitDx=0;exitDy=0;exitPerimeter=0;curved=0;strokeColor=default;strokeWidth=1;jumpStyle=none;endSize=2;" edge="1" parent="1" source="ckDsBdBry1wg4cDhe6d8-26" target="ckDsBdBry1wg4cDhe6d8-39">
          <mxGeometry width="50" height="50" relative="1" as="geometry">
            <mxPoint x="-135.62" y="1474" as="sourcePoint" />
            <mxPoint x="-42.52000000000004" y="1510" as="targetPoint" />
          </mxGeometry>
        </mxCell>
        <mxCell id="ckDsBdBry1wg4cDhe6d8-79" value="" style="endArrow=classic;html=1;rounded=0;entryX=0;entryY=0.75;entryDx=0;entryDy=0;exitX=0.999;exitY=0.71;exitDx=0;exitDy=0;exitPerimeter=0;curved=0;strokeColor=default;strokeWidth=1;jumpStyle=none;endSize=2;" edge="1" parent="1" source="ckDsBdBry1wg4cDhe6d8-26" target="ckDsBdBry1wg4cDhe6d8-30">
          <mxGeometry width="50" height="50" relative="1" as="geometry">
            <mxPoint x="-134.62" y="1590" as="sourcePoint" />
            <mxPoint x="-15.620000000000001" y="1590" as="targetPoint" />
          </mxGeometry>
        </mxCell>
        <mxCell id="ckDsBdBry1wg4cDhe6d8-81" value="" style="endArrow=classic;html=1;rounded=0;endSize=2;entryX=0;entryY=0.75;entryDx=0;entryDy=0;exitX=1.001;exitY=0.924;exitDx=0;exitDy=0;exitPerimeter=0;" edge="1" parent="1" source="ckDsBdBry1wg4cDhe6d8-26" target="ckDsBdBry1wg4cDhe6d8-43">
          <mxGeometry width="50" height="50" relative="1" as="geometry">
            <mxPoint x="-125.62" y="1645" as="sourcePoint" />
            <mxPoint x="-43.620000000000005" y="1650" as="targetPoint" />
          </mxGeometry>
        </mxCell>
        <mxCell id="ckDsBdBry1wg4cDhe6d8-90" value="" style="group" vertex="1" connectable="0" parent="1">
          <mxGeometry x="3.999999999999993" y="1457" width="10" height="12.5" as="geometry" />
        </mxCell>
        <mxCell id="ckDsBdBry1wg4cDhe6d8-85" value="" style="ellipse;whiteSpace=wrap;html=1;aspect=fixed;" vertex="1" parent="ckDsBdBry1wg4cDhe6d8-90">
          <mxGeometry y="2.5" width="10" height="10" as="geometry" />
        </mxCell>
        <mxCell id="ckDsBdBry1wg4cDhe6d8-83" value="&lt;font style=&quot;font-size: 7px;&quot;&gt;S&lt;/font&gt;" style="text;html=1;align=center;verticalAlign=middle;whiteSpace=wrap;rounded=0;" vertex="1" parent="ckDsBdBry1wg4cDhe6d8-90">
          <mxGeometry x="1.8799999999999955" width="6.25" height="12.5" as="geometry" />
        </mxCell>
        <mxCell id="ckDsBdBry1wg4cDhe6d8-130" style="edgeStyle=orthogonalEdgeStyle;curved=1;rounded=0;orthogonalLoop=1;jettySize=auto;html=1;exitX=1;exitY=0.25;exitDx=0;exitDy=0;endArrow=none;endFill=0;entryX=0.58;entryY=0.205;entryDx=0;entryDy=0;entryPerimeter=0;" edge="1" parent="1" source="ckDsBdBry1wg4cDhe6d8-39" target="ckDsBdBry1wg4cDhe6d8-83">
          <mxGeometry relative="1" as="geometry">
            <mxPoint x="20" y="1460" as="targetPoint" />
            <Array as="points">
              <mxPoint x="9" y="1454" />
            </Array>
          </mxGeometry>
        </mxCell>
        <mxCell id="ckDsBdBry1wg4cDhe6d8-117" style="edgeStyle=orthogonalEdgeStyle;curved=1;rounded=0;orthogonalLoop=1;jettySize=auto;html=1;exitX=1;exitY=0.5;exitDx=0;exitDy=0;entryX=0;entryY=0.5;entryDx=0;entryDy=0;endArrow=none;endFill=0;" edge="1" parent="1" target="ckDsBdBry1wg4cDhe6d8-120">
          <mxGeometry relative="1" as="geometry">
            <mxPoint x="-4" y="1521" as="sourcePoint" />
          </mxGeometry>
        </mxCell>
        <mxCell id="ckDsBdBry1wg4cDhe6d8-118" style="edgeStyle=orthogonalEdgeStyle;curved=1;rounded=0;orthogonalLoop=1;jettySize=auto;html=1;exitX=1;exitY=0.75;exitDx=0;exitDy=0;entryX=0.5;entryY=1;entryDx=0;entryDy=0;endArrow=none;endFill=0;" edge="1" parent="1" target="ckDsBdBry1wg4cDhe6d8-121">
          <mxGeometry relative="1" as="geometry">
            <mxPoint x="-4" y="1531" as="sourcePoint" />
          </mxGeometry>
        </mxCell>
        <mxCell id="ckDsBdBry1wg4cDhe6d8-119" value="" style="group" vertex="1" connectable="0" parent="1">
          <mxGeometry x="3.999999999999993" y="1514" width="10" height="12.5" as="geometry" />
        </mxCell>
        <mxCell id="ckDsBdBry1wg4cDhe6d8-120" value="" style="ellipse;whiteSpace=wrap;html=1;aspect=fixed;" vertex="1" parent="ckDsBdBry1wg4cDhe6d8-119">
          <mxGeometry y="2.5" width="10" height="10" as="geometry" />
        </mxCell>
        <mxCell id="ckDsBdBry1wg4cDhe6d8-121" value="&lt;font style=&quot;font-size: 7px;&quot;&gt;S&lt;/font&gt;" style="text;html=1;align=center;verticalAlign=middle;whiteSpace=wrap;rounded=0;" vertex="1" parent="ckDsBdBry1wg4cDhe6d8-119">
          <mxGeometry x="1.8799999999999955" width="6.25" height="12.5" as="geometry" />
        </mxCell>
        <mxCell id="ckDsBdBry1wg4cDhe6d8-122" style="edgeStyle=orthogonalEdgeStyle;curved=1;rounded=0;orthogonalLoop=1;jettySize=auto;html=1;exitX=1;exitY=0.25;exitDx=0;exitDy=0;endArrow=none;endFill=0;entryX=0.598;entryY=0.222;entryDx=0;entryDy=0;entryPerimeter=0;" edge="1" parent="1" target="ckDsBdBry1wg4cDhe6d8-121">
          <mxGeometry relative="1" as="geometry">
            <mxPoint x="-4" y="1511" as="sourcePoint" />
            <mxPoint x="9" y="1517" as="targetPoint" />
            <Array as="points">
              <mxPoint x="10" y="1511" />
            </Array>
          </mxGeometry>
        </mxCell>
        <mxCell id="ckDsBdBry1wg4cDhe6d8-132" value="" style="group" vertex="1" connectable="0" parent="1">
          <mxGeometry x="-4" y="1568" width="17.999999999999993" height="20" as="geometry" />
        </mxCell>
        <mxCell id="ckDsBdBry1wg4cDhe6d8-124" style="edgeStyle=orthogonalEdgeStyle;curved=1;rounded=0;orthogonalLoop=1;jettySize=auto;html=1;exitX=1;exitY=0.5;exitDx=0;exitDy=0;entryX=0;entryY=0.5;entryDx=0;entryDy=0;endArrow=none;endFill=0;" edge="1" parent="ckDsBdBry1wg4cDhe6d8-132" target="ckDsBdBry1wg4cDhe6d8-127">
          <mxGeometry relative="1" as="geometry">
            <mxPoint y="10" as="sourcePoint" />
          </mxGeometry>
        </mxCell>
        <mxCell id="ckDsBdBry1wg4cDhe6d8-125" style="edgeStyle=orthogonalEdgeStyle;curved=1;rounded=0;orthogonalLoop=1;jettySize=auto;html=1;exitX=1;exitY=0.75;exitDx=0;exitDy=0;entryX=0.413;entryY=1.029;entryDx=0;entryDy=0;endArrow=none;endFill=0;entryPerimeter=0;" edge="1" parent="ckDsBdBry1wg4cDhe6d8-132" target="ckDsBdBry1wg4cDhe6d8-128">
          <mxGeometry relative="1" as="geometry">
            <mxPoint y="20" as="sourcePoint" />
          </mxGeometry>
        </mxCell>
        <mxCell id="ckDsBdBry1wg4cDhe6d8-126" value="" style="group" vertex="1" connectable="0" parent="ckDsBdBry1wg4cDhe6d8-132">
          <mxGeometry x="7.999999999999993" y="3" width="10" height="12.5" as="geometry" />
        </mxCell>
        <mxCell id="ckDsBdBry1wg4cDhe6d8-127" value="" style="ellipse;whiteSpace=wrap;html=1;aspect=fixed;" vertex="1" parent="ckDsBdBry1wg4cDhe6d8-126">
          <mxGeometry y="2.5" width="10" height="10" as="geometry" />
        </mxCell>
        <mxCell id="ckDsBdBry1wg4cDhe6d8-128" value="&lt;font style=&quot;font-size: 7px;&quot;&gt;S&lt;/font&gt;" style="text;html=1;align=center;verticalAlign=middle;whiteSpace=wrap;rounded=0;" vertex="1" parent="ckDsBdBry1wg4cDhe6d8-126">
          <mxGeometry x="1.8799999999999955" width="6.25" height="12.5" as="geometry" />
        </mxCell>
        <mxCell id="ckDsBdBry1wg4cDhe6d8-129" style="edgeStyle=orthogonalEdgeStyle;curved=1;rounded=0;orthogonalLoop=1;jettySize=auto;html=1;exitX=1;exitY=0.25;exitDx=0;exitDy=0;endArrow=none;endFill=0;" edge="1" parent="ckDsBdBry1wg4cDhe6d8-132">
          <mxGeometry relative="1" as="geometry">
            <mxPoint as="sourcePoint" />
            <mxPoint x="13" y="6" as="targetPoint" />
          </mxGeometry>
        </mxCell>
        <mxCell id="ckDsBdBry1wg4cDhe6d8-133" style="edgeStyle=orthogonalEdgeStyle;curved=1;rounded=0;orthogonalLoop=1;jettySize=auto;html=1;exitX=1;exitY=0.5;exitDx=0;exitDy=0;entryX=0;entryY=0.5;entryDx=0;entryDy=0;endArrow=none;endFill=0;" edge="1" parent="1" target="ckDsBdBry1wg4cDhe6d8-136">
          <mxGeometry relative="1" as="geometry">
            <mxPoint x="-4" y="1635" as="sourcePoint" />
          </mxGeometry>
        </mxCell>
        <mxCell id="ckDsBdBry1wg4cDhe6d8-134" style="edgeStyle=orthogonalEdgeStyle;curved=1;rounded=0;orthogonalLoop=1;jettySize=auto;html=1;exitX=1;exitY=0.75;exitDx=0;exitDy=0;entryX=0.5;entryY=1;entryDx=0;entryDy=0;endArrow=none;endFill=0;" edge="1" parent="1" target="ckDsBdBry1wg4cDhe6d8-137">
          <mxGeometry relative="1" as="geometry">
            <mxPoint x="-4" y="1645" as="sourcePoint" />
          </mxGeometry>
        </mxCell>
        <mxCell id="ckDsBdBry1wg4cDhe6d8-135" value="" style="group" vertex="1" connectable="0" parent="1">
          <mxGeometry x="3.999999999999993" y="1628" width="10" height="12.5" as="geometry" />
        </mxCell>
        <mxCell id="ckDsBdBry1wg4cDhe6d8-136" value="" style="ellipse;whiteSpace=wrap;html=1;aspect=fixed;" vertex="1" parent="ckDsBdBry1wg4cDhe6d8-135">
          <mxGeometry y="2.5" width="10" height="10" as="geometry" />
        </mxCell>
        <mxCell id="ckDsBdBry1wg4cDhe6d8-137" value="&lt;font style=&quot;font-size: 7px;&quot;&gt;S&lt;/font&gt;" style="text;html=1;align=center;verticalAlign=middle;whiteSpace=wrap;rounded=0;" vertex="1" parent="ckDsBdBry1wg4cDhe6d8-135">
          <mxGeometry x="1.8799999999999955" width="6.25" height="12.5" as="geometry" />
        </mxCell>
        <mxCell id="ckDsBdBry1wg4cDhe6d8-138" style="edgeStyle=orthogonalEdgeStyle;curved=1;rounded=0;orthogonalLoop=1;jettySize=auto;html=1;exitX=1;exitY=0.25;exitDx=0;exitDy=0;entryX=0.446;entryY=0.24;entryDx=0;entryDy=0;entryPerimeter=0;endArrow=none;endFill=0;" edge="1" parent="1" target="ckDsBdBry1wg4cDhe6d8-137">
          <mxGeometry relative="1" as="geometry">
            <mxPoint x="-4" y="1625" as="sourcePoint" />
          </mxGeometry>
        </mxCell>
        <mxCell id="ckDsBdBry1wg4cDhe6d8-140" value="" style="rounded=0;whiteSpace=wrap;html=1;" vertex="1" parent="1">
          <mxGeometry x="110" y="1400" width="80" height="265" as="geometry" />
        </mxCell>
        <mxCell id="ckDsBdBry1wg4cDhe6d8-142" value="" style="rounded=0;whiteSpace=wrap;html=1;" vertex="1" parent="1">
          <mxGeometry x="294.940243902439" y="1436" width="55.609756097560975" height="40" as="geometry" />
        </mxCell>
        <mxCell id="ckDsBdBry1wg4cDhe6d8-143" value="" style="rounded=0;whiteSpace=wrap;html=1;" vertex="1" parent="1">
          <mxGeometry x="294.940243902439" y="1512.5" width="55.609756097560975" height="40" as="geometry" />
        </mxCell>
        <mxCell id="ckDsBdBry1wg4cDhe6d8-144" value="" style="rounded=0;whiteSpace=wrap;html=1;verticalAlign=bottom;" vertex="1" parent="1">
          <mxGeometry x="122.19" y="1632" width="55.61" height="8" as="geometry" />
        </mxCell>
        <mxCell id="ckDsBdBry1wg4cDhe6d8-145" value="" style="rounded=0;whiteSpace=wrap;html=1;" vertex="1" parent="1">
          <mxGeometry x="122.19" y="1591" width="55.61" height="32" as="geometry" />
        </mxCell>
        <mxCell id="ckDsBdBry1wg4cDhe6d8-149" style="edgeStyle=none;rounded=0;orthogonalLoop=1;jettySize=auto;html=1;exitX=1;exitY=0.5;exitDx=0;exitDy=0;entryX=0.002;entryY=0.889;entryDx=0;entryDy=0;endArrow=none;endFill=0;entryPerimeter=0;" edge="1" parent="1" source="ckDsBdBry1wg4cDhe6d8-136" target="ckDsBdBry1wg4cDhe6d8-140">
          <mxGeometry relative="1" as="geometry" />
        </mxCell>
        <mxCell id="ckDsBdBry1wg4cDhe6d8-151" value="" style="rounded=0;whiteSpace=wrap;html=1;verticalAlign=bottom;" vertex="1" parent="1">
          <mxGeometry x="122.19" y="1574" width="55.61" height="8" as="geometry" />
        </mxCell>
        <mxCell id="ckDsBdBry1wg4cDhe6d8-152" style="edgeStyle=none;rounded=0;orthogonalLoop=1;jettySize=auto;html=1;exitX=1;exitY=0.5;exitDx=0;exitDy=0;endArrow=none;endFill=0;" edge="1" parent="1">
          <mxGeometry relative="1" as="geometry">
            <mxPoint x="14" y="1578.25" as="sourcePoint" />
            <mxPoint x="110" y="1578" as="targetPoint" />
          </mxGeometry>
        </mxCell>
        <mxCell id="ckDsBdBry1wg4cDhe6d8-153" value="" style="rounded=0;whiteSpace=wrap;html=1;verticalAlign=bottom;" vertex="1" parent="1">
          <mxGeometry x="122.19" y="1517" width="55.61" height="8" as="geometry" />
        </mxCell>
        <mxCell id="ckDsBdBry1wg4cDhe6d8-154" value="" style="rounded=0;html=1;verticalAlign=bottom;imageAspect=0;whiteSpace=wrap;" vertex="1" parent="1">
          <mxGeometry x="122.19" y="1460" width="55.61" height="8" as="geometry" />
        </mxCell>
        <mxCell id="ckDsBdBry1wg4cDhe6d8-155" style="edgeStyle=none;rounded=0;orthogonalLoop=1;jettySize=auto;html=1;entryX=0.003;entryY=0.46;entryDx=0;entryDy=0;entryPerimeter=0;endArrow=none;endFill=0;" edge="1" parent="1" source="ckDsBdBry1wg4cDhe6d8-120" target="ckDsBdBry1wg4cDhe6d8-140">
          <mxGeometry relative="1" as="geometry" />
        </mxCell>
        <mxCell id="ckDsBdBry1wg4cDhe6d8-159" style="edgeStyle=none;rounded=0;orthogonalLoop=1;jettySize=auto;html=1;entryX=0.003;entryY=0.46;entryDx=0;entryDy=0;entryPerimeter=0;endArrow=none;endFill=0;" edge="1" parent="1">
          <mxGeometry relative="1" as="geometry">
            <mxPoint x="14" y="1463.86" as="sourcePoint" />
            <mxPoint x="110" y="1463.86" as="targetPoint" />
          </mxGeometry>
        </mxCell>
        <mxCell id="ckDsBdBry1wg4cDhe6d8-160" value="" style="rounded=0;whiteSpace=wrap;html=1;" vertex="1" parent="1">
          <mxGeometry x="122.19" y="1533" width="55.61" height="32" as="geometry" />
        </mxCell>
        <mxCell id="ckDsBdBry1wg4cDhe6d8-161" value="" style="rounded=0;whiteSpace=wrap;html=1;" vertex="1" parent="1">
          <mxGeometry x="122.2" y="1476" width="55.61" height="32" as="geometry" />
        </mxCell>
        <mxCell id="ckDsBdBry1wg4cDhe6d8-164" value="&lt;div&gt;&lt;div style=&quot;font-size: 5px;&quot;&gt;&lt;span style=&quot;background-color: initial;&quot;&gt;Split &amp;amp; Concat &amp;amp; Conv&lt;/span&gt;&lt;/div&gt;&lt;/div&gt;" style="text;strokeColor=none;align=center;fillColor=none;html=1;verticalAlign=middle;whiteSpace=wrap;rounded=0;" vertex="1" parent="1">
          <mxGeometry x="122.3" y="1572" width="56.5" height="10" as="geometry" />
        </mxCell>
        <mxCell id="ckDsBdBry1wg4cDhe6d8-165" value="&lt;div&gt;&lt;div style=&quot;font-size: 5px;&quot;&gt;&lt;span style=&quot;background-color: initial;&quot;&gt;Split &amp;amp; Concat &amp;amp; Conv&lt;/span&gt;&lt;/div&gt;&lt;/div&gt;" style="text;strokeColor=none;align=center;fillColor=none;html=1;verticalAlign=middle;whiteSpace=wrap;rounded=0;" vertex="1" parent="1">
          <mxGeometry x="122.3" y="1515.25" width="56.5" height="10" as="geometry" />
        </mxCell>
        <mxCell id="ckDsBdBry1wg4cDhe6d8-167" value="&lt;div&gt;&lt;div style=&quot;font-size: 5px;&quot;&gt;&lt;span style=&quot;background-color: initial;&quot;&gt;Split &amp;amp; Concat &amp;amp; Conv&lt;/span&gt;&lt;/div&gt;&lt;/div&gt;" style="text;strokeColor=none;align=center;fillColor=none;html=1;verticalAlign=middle;whiteSpace=wrap;rounded=0;" vertex="1" parent="1">
          <mxGeometry x="122.3" y="1458" width="56.5" height="10" as="geometry" />
        </mxCell>
        <mxCell id="ckDsBdBry1wg4cDhe6d8-168" value="&lt;div&gt;&lt;div style=&quot;font-size: 5px;&quot;&gt;&lt;span style=&quot;background-color: initial;&quot;&gt;Split&amp;nbsp;&lt;/span&gt;&lt;/div&gt;&lt;/div&gt;" style="text;strokeColor=none;align=center;fillColor=none;html=1;verticalAlign=middle;whiteSpace=wrap;rounded=0;" vertex="1" parent="1">
          <mxGeometry x="121.3" y="1630" width="56.5" height="10" as="geometry" />
        </mxCell>
        <mxCell id="ckDsBdBry1wg4cDhe6d8-172" value="" style="rounded=0;whiteSpace=wrap;html=1;" vertex="1" parent="1">
          <mxGeometry x="121.3" y="1419" width="55.61" height="32" as="geometry" />
        </mxCell>
        <mxCell id="ckDsBdBry1wg4cDhe6d8-174" value="" style="rounded=0;whiteSpace=wrap;html=1;" vertex="1" parent="1">
          <mxGeometry x="121.30000000000001" y="1403" width="55.61" height="12" as="geometry" />
        </mxCell>
      </root>
    </mxGraphModel>
  </diagram>
</mxfile>
